<svg xmlns="http://www.w3.org/2000/svg" viewBox="0 0 320 220" role="img" aria-labelledby="t d">
  <title id="t">Corn</title>
  <desc id="d">Illustration of a corn cob.</desc>
  <defs>
    <linearGradient id="bg" x1="0" x2="1" y1="0" y2="1">
      <stop offset="0%" stop-color="#fff7d6"/>
      <stop offset="100%" stop-color="#ffe59a"/>
    </linearGradient>
  </defs>
  <rect width="320" height="220" rx="18" fill="url(#bg)"/>
  <ellipse cx="160" cy="112" rx="46" ry="78" fill="#f2c028"/>
  <g fill="#ffde66">
    <circle cx="145" cy="78" r="6"/><circle cx="161" cy="72" r="6"/><circle cx="176" cy="79" r="6"/>
    <circle cx="145" cy="95" r="6"/><circle cx="161" cy="89" r="6"/><circle cx="176" cy="96" r="6"/>
    <circle cx="145" cy="112" r="6"/><circle cx="161" cy="106" r="6"/><circle cx="176" cy="113" r="6"/>
    <circle cx="145" cy="129" r="6"/><circle cx="161" cy="123" r="6"/><circle cx="176" cy="130" r="6"/>
    <circle cx="145" cy="146" r="6"/><circle cx="161" cy="140" r="6"/><circle cx="176" cy="147" r="6"/>
  </g>
  <path d="M120 155 C108 134 106 104 114 84 C122 64 133 54 142 48" fill="none" stroke="#4a9f4a" stroke-width="14" stroke-linecap="round"/>
  <path d="M200 155 C212 134 214 104 206 84 C198 64 187 54 178 48" fill="none" stroke="#3f8f42" stroke-width="14" stroke-linecap="round"/>
  <text x="20" y="198" font-family="Segoe UI, Arial, sans-serif" font-size="24" fill="#5d4700" font-weight="700">Corn</text>
</svg>
